<svg width="24" height="24" viewBox="0 0 24 24" fill="none" xmlns="http://www.w3.org/2000/svg">
<g clip-path="url(#clip0)">
<path d="M12 24C18.6274 24 24 18.6274 24 12C24 5.37258 18.6274 0 12 0C5.37258 0 0 5.37258 0 12C0 18.6274 5.37258 24 12 24Z"/>
<path d="M12 14.544C13.4057 14.544 14.544 13.4057 14.544 12C14.544 10.5943 13.4057 9.456 12 9.456C10.5943 9.456 9.456 10.5943 9.456 12C9.456 13.4057 10.5943 14.544 12 14.544Z" fill="gray"/>
<path d="M14.464 5.952L12.128 0.304L9.744 5.952C9.744 5.952 12.064 4.912 14.464 5.952Z" fill="gray"/>
<path d="M6.16 9.28C6.16 9.28 7.072 6.928 9.584 5.872L3.824 3.68L6.16 9.28Z" fill="gray"/>
<path d="M23.216 11.664L17.728 9.28C17.728 9.28 18.944 11.632 17.888 14.144L23.216 11.664Z" fill="gray"/>
<path d="M17.664 9.296L20.048 3.536L14.368 5.904C14.368 5.904 16.72 6.8 17.664 9.296Z" fill="gray"/>
<path d="M9.76 18.016L12.096 23.664L14.464 18.016C14.464 18.016 12.144 19.056 9.76 18.016Z" fill="gray"/>
<path d="M14.384 17.952L20.144 20.144L17.808 14.544C17.808 14.544 16.896 16.896 14.384 17.952Z" fill="gray"/>
<path d="M0.8 12.016L6.288 14.4C6.288 14.4 5.072 12.048 6.128 9.536L0.8 12.016Z" fill="gray"/>
<path d="M6.32 14.528L3.968 20.304L9.616 17.92C9.616 17.92 7.248 17.024 6.32 14.528Z" fill="gray"/>
</g>
<defs>
<clipPath id="clip0">
<rect width="24" height="24" fill="white"/>
</clipPath>
</defs>
</svg>